<?xml version="1.0" encoding="UTF-8"?>
<svg width="20px" height="20px" viewBox="0 0 20 20" version="1.1" xmlns="http://www.w3.org/2000/svg" xmlns:xlink="http://www.w3.org/1999/xlink">
    <title>Shape</title>
    <g id="Page-1" stroke="none" stroke-width="1" fill="none" fill-rule="evenodd">
        <path d="M10,0 C4.48,0 0,4.48 0,10 C0,15.52 4.48,20 10,20 C15.52,20 20,15.52 20,10 C20,4.48 15.52,0 10,0 Z M7.29,14.29 L3.7,10.7 C3.31,10.31 3.31,9.68 3.7,9.29 C4.09,8.9 4.72,8.9 5.11,9.29 L8,12.17 L14.88,5.29 C15.27,4.9 15.9,4.9 16.29,5.29 C16.68,5.68 16.68,6.31 16.29,6.7 L8.7,14.29 C8.32,14.68 7.68,14.68 7.29,14.29 Z" id="Shape" fill="#FFFFFF" fill-rule="nonzero"></path>
    </g>
</svg>