<?xml version="1.0" encoding="UTF-8"?>
<svg width="19px" height="20px" viewBox="0 0 19 20" version="1.1" xmlns="http://www.w3.org/2000/svg" xmlns:xlink="http://www.w3.org/1999/xlink">
    <title>c</title>
    <g id="Page-1" stroke="none" stroke-width="1" fill="none" fill-rule="evenodd">
        <path d="M9.49997735,19.07812 C14.5827175,19.07812 18.7030804,14.9577571 18.7030804,9.87501699 C18.7030804,4.79227688 14.5827175,0.671913929 9.49997735,0.671913929 C4.41723724,0.671913929 0.296874292,4.79227688 0.296874292,9.87501699 C0.296874292,14.9577571 4.41723724,19.07812 9.49997735,19.07812 Z M9.49997735,17.2968743 C5.39820528,17.2968743 2.07812005,13.9774051 2.07812005,9.87501699 C2.07812005,5.77324492 5.39758921,2.45315968 9.49997735,2.45315968 C13.6017494,2.45315968 16.9218347,5.77262885 16.9218347,9.87501699 C16.9218347,13.9767891 13.6023655,17.2968743 9.49997735,17.2968743 Z M8.29570128,14.2703293 L14.700351,7.91706725 C14.8749169,7.74384226 14.8760403,7.46186242 14.7028515,7.28726032 L13.8665517,6.44421996 C13.693363,6.26961787 13.4114194,6.26849444 13.2368173,6.44171943 L7.9913254,11.6450285 L5.77248723,9.40817926 C5.59929848,9.23357717 5.31735488,9.23241751 5.14275278,9.40560626 L4.29967618,10.2419061 C4.12507409,10.4150948 4.12391442,10.6970747 4.29713941,10.871713 L7.66596683,14.2677925 C7.83915558,14.4423946 8.12109918,14.4435543 8.29570128,14.2703293 Z" id="c" fill="#FFFFFF" fill-rule="nonzero"></path>
    </g>
</svg>