<?xml version="1.0" encoding="UTF-8"?>
<svg width="17px" height="4px" viewBox="0 0 17 4" version="1.1" xmlns="http://www.w3.org/2000/svg" xmlns:xlink="http://www.w3.org/1999/xlink">
    <title></title>
    <g id="Page-1" stroke="none" stroke-width="1" fill="none" fill-rule="evenodd">
        <path d="M8.49997735,3.65626274 C9.48337344,3.65626274 10.2812231,2.85841308 10.2812231,1.87501699 C10.2812231,0.891620894 9.48337344,0.0937712342 8.49997735,0.0937712342 C7.51658126,0.0937712342 6.7187316,0.891620894 6.7187316,1.87501699 C6.7187316,2.85841308 7.51658126,3.65626274 8.49997735,3.65626274 Z M14.7343375,3.65626274 C15.7177336,3.65626274 16.5155832,2.85841308 16.5155832,1.87501699 C16.5155832,0.891620894 15.7177336,0.0937712342 14.7343375,0.0937712342 C13.7509414,0.0937712342 12.9530917,0.891620894 12.9530917,1.87501699 C12.9530917,2.85841308 13.7509414,3.65626274 14.7343375,3.65626274 Z M2.26561721,3.65626274 C3.24901331,3.65626274 4.04686297,2.85841308 4.04686297,1.87501699 C4.04686297,0.891620894 3.24901331,0.0937712342 2.26561721,0.0937712342 C1.28222112,0.0937712342 0.484371461,0.891620894 0.484371461,1.87501699 C0.484371461,2.85841308 1.28222112,3.65626274 2.26561721,3.65626274 Z" id="" fill="#BFBFBF" fill-rule="nonzero"></path>
    </g>
</svg>