<?xml version="1.0" encoding="UTF-8"?>
<svg width="16px" height="13px" viewBox="0 0 16 13" version="1.1" xmlns="http://www.w3.org/2000/svg" xmlns:xlink="http://www.w3.org/1999/xlink">
    <title></title>
    <g id="Page-1" stroke="none" stroke-width="1" fill="none" fill-rule="evenodd">
        <path d="M14.5,12.750034 C15.3284302,12.750034 16,12.0784642 16,11.250034 L16,4.25003397 C16,3.4216038 15.3284302,2.75003397 14.5,2.75003397 L8.5,2.75003397 L6.79281616,1.04285014 C6.60531616,0.855350137 6.35095215,0.750033975 6.08563232,0.750033975 L1.5,0.750033975 C0.671569824,0.750033975 0,1.4216038 0,2.25003397 L0,11.250034 C0,12.0784642 0.671569824,12.750034 1.5,12.750034 L14.5,12.750034 Z M14.5,11.250034 L1.5,11.250034 L1.5,2.25003397 L5.87875366,2.25003397 L7.5859375,3.95721781 C7.7734375,4.14471781 8.02780151,4.25003397 8.29312134,4.25003397 L14.5,4.25003397 L14.5,11.250034 Z" id="" fill="#105FB2" fill-rule="nonzero"></path>
    </g>
</svg>