<?xml version="1.0" encoding="UTF-8"?>
<svg width="121px" height="120px" viewBox="0 0 121 120" version="1.1" xmlns="http://www.w3.org/2000/svg" xmlns:xlink="http://www.w3.org/1999/xlink">
    <title>greenBank logo</title>
    <g id="Page-1" stroke="none" stroke-width="1" fill="none" fill-rule="evenodd">
        <g id="greenBank-logo" transform="translate(0.800000, 0.000000)">
            <rect id="Rectangle" fill="#308D63" x="0" y="0" width="120" height="120" rx="8"></rect>
            <g id="Group" transform="translate(20.000000, 40.000000)" fill-rule="nonzero">
                <path d="M56.0899046,39.1131262 C56.1602238,38.9514466 57.0696578,36.9616826 59.4605101,35.0437663 C60.9794228,37.0155465 63.867179,38.8975388 67.6597454,38.5112799 C75.01982,37.9992215 80.2,31.6750765 80.2,23.9315638 C80.2,21.6767786 79.693711,19.3411536 78.8030013,17.4367473 C78.5404489,16.875299 77.7903776,16.852841 77.4763219,17.3828395 C76.0230587,19.8038221 73.4212489,21.3129777 70.449073,21.3129777 L66.6987165,21.3129777 C61.7294941,21.3129777 57.6978608,25.175742 57.6978608,29.9368237 C57.6978608,30.2512348 57.7353553,30.5521799 57.76818,30.857599 C60.7590802,28.8049352 65.0767056,27.0622084 71.1991443,27.0622084 C71.6116744,27.0622084 71.9492156,27.3856114 71.9492156,27.7808622 C71.9492156,28.176113 71.6116744,28.499516 71.1991443,28.499516 C59.4136306,28.499516 54.4162989,35.4210333 53.309962,38.0216794 C53.0005301,38.7537993 53.3661808,39.5892607 54.1303525,39.8901619 C54.8991481,40.1956248 55.7711335,39.840772 56.0899046,39.1131262 Z" id="" fill="#3FC287"></path>
                <path d="M11.1029145,20 C12.3458738,20 13.5910848,19.8719707 14.8385475,19.6159122 C16.0860103,19.3598537 17.5473881,18.9208962 19.2226811,18.2990398 C19.1416185,17.567444 19.1010872,16.8541381 19.1010872,16.1591221 C19.1010872,15.7018747 19.1236046,14.9474166 19.1686394,13.8957476 C19.1866533,13.484225 19.2361915,13.2327389 19.3172541,13.1412894 C19.4793792,12.9492455 19.8216433,12.7983539 20.3440465,12.6886145 L20.3440465,12.6886145 L20.3440465,11.7832647 L16.277408,11.8381344 L12.2377904,11.7832647 L12.2377904,12.8943759 C13.6338678,12.9766804 14.4895282,13.0635574 14.8047715,13.1550069 C14.9939175,13.2007316 15.1155113,13.2784636 15.169553,13.388203 C15.2416086,13.5528121 15.2776364,14.0740741 15.2776364,14.951989 L15.2769969,15.039326 C15.2746519,15.235753 15.2658581,15.6318807 15.2506156,16.2277092 C15.2326017,16.9318701 15.2100843,17.4074074 15.1830634,17.654321 C14.6336394,17.9012346 14.0729567,18.088706 13.5010153,18.2167353 C12.9290739,18.3447645 12.3413703,18.4087791 11.7379046,18.4087791 C9.66630577,18.4087791 7.91670549,17.6108825 6.48910371,16.0150892 C5.06150194,14.4192958 4.34770105,12.267947 4.34770105,9.56104252 C4.34770105,7.08276177 5.02547413,5.13488797 6.3810203,3.71742112 C7.73656646,2.29995428 9.54020846,1.59122085 11.7919463,1.59122085 C12.7556901,1.59122085 13.6203574,1.70553269 14.3859482,1.93415638 C15.1515391,2.16278006 15.8270604,2.47828075 16.4125123,2.88065844 C16.6737139,3.05441244 16.9169015,3.27846365 17.1420753,3.55281207 C17.205124,3.83630544 17.2501587,4.17924097 17.2771796,4.58161866 C17.3132074,5.15775034 17.3312213,5.59213535 17.3312213,5.88477366 L17.3312213,5.88477366 L18.4120555,5.88477366 C18.5921945,3.84545039 18.7903474,2.42341107 19.0065142,1.61865569 L19.0065142,1.61865569 L18.8984308,1.35802469 C18.1598608,1.01966164 17.1308166,0.708733425 15.8112983,0.425240055 C14.4917799,0.141746685 13.0664299,0 11.5352482,0 C10.2922889,0 9.15065781,0.107453132 8.11035494,0.322359396 C7.07005207,0.537265661 6.07478396,0.89391861 5.1245506,1.39231824 C4.17431724,1.89071788 3.32541208,2.54000914 2.57783512,3.34019204 C1.83025817,4.14037494 1.24705807,5.07544582 0.828234839,6.14540466 C0.409411605,7.21536351 0.199999988,8.46822131 0.199999988,9.90397805 C0.199999988,11.6049383 0.519746758,13.1504344 1.1592403,14.5404664 C1.56455311,15.4366712 2.15450841,16.2734339 2.92910622,17.0507545 C3.70370403,17.828075 4.63592349,18.4636488 5.72576459,18.957476 C7.28396716,19.652492 9.07635047,20 11.1029145,20 Z M29.4508651,19.5198903 L29.4508651,18.4636488 L28.3430101,18.3539095 C27.8656417,18.3173297 27.5549019,18.253315 27.4107906,18.1618656 C27.2666794,18.0704161 27.1743582,17.9446731 27.1338269,17.7846365 C27.0932956,17.6245999 27.0685265,17.1925011 27.0595195,16.4883402 L27.0595195,16.4883402 L27.0324987,14.6227709 L27.0326484,13.0435196 C27.0344448,11.8269629 27.0524088,11.1233846 27.0865404,10.9327846 C27.158596,10.5852766 27.3860215,10.2446273 27.7688169,9.91083676 C28.1516124,9.57704618 28.6087152,9.41015089 29.1401253,9.41015089 C29.5364311,9.41015089 29.9012127,9.50617284 30.2344699,9.69821674 C30.4416297,9.81710105 30.6577966,10.0274348 30.8829704,10.3292181 L30.8829704,10.3292181 L31.4504083,10.1508916 C31.4684222,9.99542753 31.4909396,9.38728852 31.5179604,8.32647462 L31.5179604,8.32647462 L31.599023,6.37860082 C31.3288144,6.26886145 31.0270816,6.21399177 30.6938244,6.21399177 C30.1624142,6.21399177 29.7345841,6.32373114 29.4103338,6.54320988 C29.1761531,6.69867398 28.824882,7.05989941 28.3565205,7.62688615 C28.0412772,8.02926383 27.5909297,8.53680841 27.0054778,9.14951989 L27.0054778,9.14951989 L27.0324987,6.37860082 L26.6677172,6.21399177 C26.0192167,6.51577503 25.4382683,6.73525377 24.9248721,6.87242798 C24.4114759,7.00960219 23.3351452,7.21993599 21.6958801,7.50342936 L21.6958801,7.50342936 L21.6958801,8.55967078 C22.5425335,8.58710562 23.0514262,8.63283036 23.2225583,8.69684499 C23.3306417,8.73342478 23.4094525,8.7905807 23.4589908,8.86831276 C23.508529,8.94604481 23.5468085,9.27754915 23.5738294,9.86282579 C23.6278711,11.0242341 23.654892,12.0118884 23.654892,12.8257888 L23.654892,12.8257888 L23.6542248,14.9831496 C23.652668,15.3759307 23.6483869,15.6718996 23.6413815,15.8710562 L23.6413815,15.8710562 L23.5873398,17.0919067 C23.5783329,17.5765889 23.5287946,17.905807 23.4387251,18.079561 C23.3756765,18.1893004 23.2811035,18.2670325 23.1550062,18.3127572 C22.8847976,18.4133516 22.3984223,18.4636488 21.6958801,18.4636488 L21.6958801,18.4636488 L21.6958801,19.5198903 C23.2000409,19.4741655 24.6501601,19.4513032 26.0462375,19.4513032 C27.2982037,19.4513032 28.4330796,19.4741655 29.4508651,19.5198903 L29.4508651,19.5198903 Z M38.4766211,20 C39.2241981,20 39.8907125,19.9222679 40.4761643,19.7668038 C41.2597691,19.5473251 42.0208565,19.208962 42.7594265,18.7517147 L42.7594265,18.7517147 L43.3538852,17.4074074 L43.029635,17.0233196 C42.3270928,17.3799726 41.7596549,17.615455 41.3273212,17.7297668 C40.8949875,17.8440786 40.4221226,17.9012346 39.9087264,17.9012346 C38.7198088,17.9012346 37.7200372,17.4828532 36.9094116,16.6460905 C36.098786,15.8093278 35.6574454,14.6684957 35.5853898,13.223594 L35.5853898,13.223594 L36.4770779,13.223594 C36.6211892,13.223594 36.75179,13.2190215 36.8688803,13.2098765 C36.9859707,13.2007316 37.5984434,13.1915866 38.7062984,13.1824417 C39.8141534,13.1732968 40.7058416,13.1412894 41.3813629,13.0864198 C41.5975297,13.0772748 42.0118495,13.0132602 42.6243222,12.8943759 C43.0836767,12.8029264 43.4259409,12.7206219 43.6511146,12.6474623 C43.6691285,12.4096936 43.6781355,12.1627801 43.6781355,11.9067215 C43.6781355,10.7727481 43.5182621,9.8079561 43.1985153,9.01234568 C42.8787686,8.21673525 42.3315963,7.56287151 41.5569985,7.05075446 C40.7824007,6.5386374 39.791636,6.28257888 38.5847045,6.28257888 C37.7290442,6.28257888 36.9859707,6.42432556 36.3554841,6.70781893 C36.01322,6.86328304 35.4637959,7.19250114 34.707212,7.69547325 C33.9506281,8.19844536 33.4822666,8.54138089 33.3021276,8.72427984 C33.0139052,9.01691815 32.7617105,9.49245542 32.5455437,10.1508916 C32.2303004,11.0928212 32.0726788,12.1627801 32.0726788,13.3607682 C32.0726788,14.1838134 32.1537413,14.9428441 32.3158665,15.6378601 C32.4779916,16.3328761 32.7414449,16.9455876 33.1062264,17.4759945 C33.471008,18.0064015 33.8943347,18.4545039 34.3762066,18.8203018 C34.8580785,19.1860997 35.4390268,19.4741655 36.1190516,19.6844993 C36.7990765,19.8948331 37.584933,20 38.4766211,20 Z M38.1523709,11.8518519 C36.9094116,11.8518519 36.0222269,11.8106996 35.4908168,11.7283951 C35.454789,10.3292181 35.6709558,9.32327389 36.1393173,8.71056241 C36.5986718,8.10699588 37.1796201,7.80521262 37.8821623,7.80521262 C38.5666906,7.80521262 39.1251216,8.09327846 39.5574553,8.66941015 C39.980782,9.25468679 40.1744314,10.2743484 40.1384036,11.7283951 C39.6069935,11.8106996 38.9449826,11.8518519 38.1523709,11.8518519 Z M51.5014635,20 C52.2490405,20 52.9155549,19.9222679 53.5010067,19.7668038 C54.2846115,19.5473251 55.0456988,19.208962 55.7842688,18.7517147 L55.7842688,18.7517147 L56.3787276,17.4074074 L56.0544774,17.0233196 C55.3519352,17.3799726 54.7844973,17.615455 54.3521636,17.7297668 C53.9198299,17.8440786 53.446965,17.9012346 52.9335688,17.9012346 C51.7446512,17.9012346 50.7448796,17.4828532 49.934254,16.6460905 C49.1236284,15.8093278 48.6822878,14.6684957 48.6102322,13.223594 L48.6102322,13.223594 L49.5019203,13.223594 C49.6460316,13.223594 49.7766324,13.2190215 49.8937227,13.2098765 C50.0108131,13.2007316 50.6232858,13.1915866 51.7311408,13.1824417 C52.8389958,13.1732968 53.730684,13.1412894 54.4062053,13.0864198 C54.6223721,13.0772748 55.0366919,13.0132602 55.6491646,12.8943759 C56.1085191,12.8029264 56.4507832,12.7206219 56.675957,12.6474623 C56.6939709,12.4096936 56.7029779,12.1627801 56.7029779,11.9067215 C56.7029779,10.7727481 56.5431045,9.8079561 56.2233577,9.01234568 C55.903611,8.21673525 55.3564387,7.56287151 54.5818409,7.05075446 C53.807243,6.5386374 52.8164784,6.28257888 51.6095469,6.28257888 C50.7538866,6.28257888 50.0108131,6.42432556 49.3803265,6.70781893 C49.0380623,6.86328304 48.4886383,7.19250114 47.7320544,7.69547325 C46.9754705,8.19844536 46.507109,8.54138089 46.32697,8.72427984 C46.0387476,9.01691815 45.7865529,9.49245542 45.5703861,10.1508916 C45.2551428,11.0928212 45.0975212,12.1627801 45.0975212,13.3607682 C45.0975212,14.1838134 45.1785837,14.9428441 45.3407088,15.6378601 C45.502834,16.3328761 45.7662873,16.9455876 46.1310688,17.4759945 C46.4958504,18.0064015 46.9191771,18.4545039 47.401049,18.8203018 C47.8829208,19.1860997 48.4638692,19.4741655 49.143894,19.6844993 C49.8239188,19.8948331 50.6097753,20 51.5014635,20 Z M51.1772133,11.8518519 C49.934254,11.8518519 49.0470693,11.8106996 48.5156592,11.7283951 C48.4796314,10.3292181 48.6957982,9.32327389 49.1641597,8.71056241 C49.6235142,8.10699588 50.2044625,7.80521262 50.9070047,7.80521262 C51.591533,7.80521262 52.149964,8.09327846 52.5822977,8.66941015 C53.0056244,9.25468679 53.1992738,10.2743484 53.163246,11.7283951 C52.6318359,11.8106996 51.969825,11.8518519 51.1772133,11.8518519 Z M73.2,19.5198903 L73.2,18.4636488 C72.8487289,18.427069 72.5965343,18.4042067 72.4434161,18.3950617 C72.0290963,18.3676269 71.7611395,18.301326 71.6395457,18.1961591 C71.5179518,18.0909922 71.4368893,17.8555098 71.396358,17.4897119 C71.3558267,17.123914 71.3310576,16.168267 71.3220506,14.6227709 L71.3220506,14.6227709 L71.3085402,13.2098765 C71.3085402,13.0544124 71.3130437,12.9218107 71.3220506,12.8120713 C71.3400646,12.528578 71.3490715,11.8655693 71.3490715,10.8230453 C71.3490715,9.89940558 71.2815194,9.22039323 71.1464151,8.78600823 C71.0113108,8.35162323 70.7771301,7.93552812 70.4438729,7.53772291 C70.1106157,7.1399177 69.7030512,6.83127572 69.2211793,6.61179698 C68.7393074,6.39231824 68.0164995,6.28257888 67.0527557,6.28257888 C66.6924777,6.28257888 66.4110105,6.30315501 66.2083541,6.34430727 C66.0056977,6.38545953 65.7557548,6.46547782 65.4585254,6.58436214 L65.4585254,6.58436214 L62.9996277,8.58710562 L62.9996277,6.37860082 L62.6348461,6.21399177 C61.9863457,6.51577503 61.4053973,6.73525377 60.8920011,6.87242798 C60.3786049,7.00960219 59.3022742,7.21993599 57.663009,7.50342936 L57.663009,7.50342936 L57.663009,8.55967078 C58.5096625,8.58710562 59.0185552,8.63283036 59.1896873,8.69684499 C59.2977707,8.73342478 59.3765815,8.7905807 59.4261198,8.86831276 C59.475658,8.94604481 59.5139375,9.27754915 59.5409584,9.86282579 C59.5950001,11.0242341 59.6220209,12.0118884 59.6220209,12.8257888 L59.6220209,12.8257888 L59.6218542,14.8088875 C59.6209646,15.2893924 59.6165167,15.6434487 59.6085105,15.8710562 L59.6085105,15.8710562 L59.5544688,17.0919067 C59.5454619,17.5765889 59.4959236,17.905807 59.4058541,18.079561 C59.3428055,18.1893004 59.2482325,18.2670325 59.1221352,18.3127572 C58.8519266,18.4133516 58.3655512,18.4636488 57.663009,18.4636488 L57.663009,18.4636488 L57.663009,19.5198903 C58.5727111,19.4833105 59.8516982,19.4650206 61.4999703,19.4650206 C62.9230686,19.4650206 64.1254966,19.4833105 65.1072543,19.5198903 L65.1072543,19.5198903 L65.1072543,18.4636488 C64.4587538,18.4087791 64.0804618,18.3721994 63.9723784,18.3539095 C63.6571351,18.2898948 63.4454718,18.2213077 63.3373883,18.1481481 C63.2653327,18.1024234 63.2067876,18.0292638 63.1617528,17.9286694 C63.0987041,17.7914952 63.0626763,17.5080018 63.0536694,17.0781893 C63.0176416,16.1088249 62.9996277,15.2903521 62.9996277,14.6227709 L62.9996277,14.6227709 L62.9996277,12.3182442 C62.9991273,12.2471168 62.9987381,12.1776829 62.9984601,12.1099426 L62.9981265,11.7238226 C63.0006284,10.8093278 63.0281497,10.2758726 63.0806902,10.1234568 C63.1887736,9.81252858 63.4499752,9.5038866 63.864295,9.19753086 C64.2786148,8.89117513 64.8010179,8.73799726 65.4315045,8.73799726 C66.0619911,8.73799726 66.5663804,8.89117513 66.9446723,9.19753086 C67.3229643,9.5038866 67.5729072,9.90855053 67.694501,10.4115226 C67.8160949,10.9144947 67.8768918,11.9661637 67.8768918,13.5665295 L67.8768918,13.5665295 L67.8768918,14.6502058 L67.8093397,16.8998628 C67.7102632,18.2898948 67.651718,19.0809328 67.6337041,19.2729767 L67.6337041,19.2729767 L67.8768918,19.5198903 C68.5343992,19.4558756 69.308997,19.4238683 70.2006852,19.4238683 C70.975283,19.4238683 71.9750546,19.4558756 73.2,19.5198903 L73.2,19.5198903 Z" id="Green" fill="#FFFFFF"></path>
                <path d="M7.15680299,38.7051368 C8.15221201,38.7051368 8.98171952,38.5784968 9.64532553,38.3252168 C10.3089315,38.0719368 10.8969602,37.7298199 11.4094115,37.2988659 C11.9218628,36.8679119 12.3403033,36.348121 12.6647329,35.739493 C12.9891625,35.130865 13.1513773,34.4523015 13.1513773,33.7038025 C13.1513773,32.9931065 12.9928492,32.3485657 12.675793,31.7701801 C12.3587368,31.1917945 11.9366096,30.766511 11.4094115,30.4943296 C10.8822134,30.2221481 9.94763494,30.0028908 8.60567611,29.8365577 C9.72643293,29.5190127 10.4490261,29.2657327 10.7734557,29.0767178 C11.3190874,28.7667334 11.7670214,28.3319991 12.1172579,27.772515 C12.4674944,27.2130309 12.6426127,26.6081832 12.6426127,25.957972 C12.6426127,25.3531243 12.4896146,24.8068712 12.1836185,24.3192128 C11.8776224,23.8315544 11.3946647,23.459195 10.7347454,23.2021348 C10.0748261,22.9450745 9.13656092,22.8165444 7.9199499,22.8165444 C7.5955203,22.8165444 6.90242069,22.8392262 5.84065107,22.8845897 C5.42036727,22.8997109 4.84155536,22.9072715 4.10421535,22.9072715 L3.83065068,22.9070943 C3.20563981,22.9062674 2.67377573,22.9025461 2.23505842,22.8959306 L2.23505842,22.8959306 L0.708764596,22.850567 C0.531802993,22.8430064 0.362214791,22.8392262 0.199999988,22.8392262 L0.199999988,22.8392262 L0.199999988,23.7805203 C1.1511686,23.8410051 1.70417361,23.9241717 1.85901501,24.03002 C1.93274901,24.0753836 1.98804952,24.1547698 2.02491652,24.2681788 C2.08390372,24.4496331 2.12445742,25.1754503 2.14657762,26.4456304 C2.18344462,28.0938403 2.20187812,29.307316 2.20187812,30.0860574 L2.20159498,30.7673094 C2.19942425,33.3122786 2.18477183,35.0925328 2.15763772,36.108072 C2.14289092,36.6448744 2.11339732,37.0985101 2.06915692,37.4689793 C1.81108791,37.7033578 1.48665831,37.9377363 1.0958681,38.1721147 L1.0958681,38.1721147 L1.0958681,38.7051368 C2.06178352,38.6597732 2.84336393,38.6370914 3.44060934,38.6370914 L3.44060934,38.6370914 L7.15680299,38.7051368 Z M5.92913187,29.3942628 L5.28764606,29.3829219 L5.28764606,27.7611741 L5.30976627,26.0033356 C5.31713967,25.2926395 5.34294657,24.6651101 5.38718697,24.1207472 C5.77797717,24.0602624 6.21300778,24.03002 6.69227879,24.03002 C7.3558848,24.03002 7.8535893,24.1112964 8.18539231,24.2738492 C8.51719531,24.436402 8.78632442,24.7085835 8.99277962,25.0903936 C9.19923482,25.4722037 9.30246243,25.9352902 9.30246243,26.4796531 C9.30246243,27.0164554 9.21213827,27.4908828 9.03148997,27.9029353 C8.85084167,28.3149878 8.62779632,28.6249722 8.36235391,28.8328886 C8.09691151,29.040805 7.7503617,29.1863465 7.3227045,29.269513 C6.89504729,29.3526796 6.43052308,29.3942628 5.92913187,29.3942628 L5.92913187,29.3942628 Z M6.70333889,37.5143429 C6.03235948,37.5143429 5.57520867,37.4878808 5.33188647,37.4349566 C5.31713967,37.2761841 5.30976627,37.1778964 5.30976627,37.1400934 L5.30976627,37.1400934 L5.28764606,35.790527 L5.28764606,30.6190794 C5.55308847,30.588837 5.83696437,30.5737158 6.13927378,30.5737158 C6.99458819,30.5737158 7.6655676,30.677674 8.15221201,30.8855904 C8.63885642,31.0935068 9.02964662,31.4507449 9.32458263,31.9573049 C9.61951863,32.4638648 9.76698663,33.1254169 9.76698663,33.9419613 C9.76698663,35.0911719 9.48495408,35.9738715 8.92088897,36.59006 C8.35682386,37.2062486 7.6176405,37.5143429 6.70333889,37.5143429 Z M17.8851002,39 C18.1874096,39 18.5044658,38.962197 18.8362688,38.8865911 C20.1339872,37.8659106 20.9155676,37.2686235 21.18101,37.0947298 L21.18101,37.0947298 L21.0814691,38.5803869 L21.18101,38.7051368 C21.7635086,38.6673338 22.3644407,38.6484323 22.9838063,38.6484323 C23.6400389,38.6484323 24.3921258,38.6673338 25.2400668,38.7051368 L25.2400668,38.7051368 L25.2400668,37.8545697 C24.6133278,37.8092061 24.2409711,37.756282 24.1229966,37.6957972 C24.0345158,37.6504336 23.9755286,37.5597065 23.946035,37.4236157 C23.872301,37.1363131 23.835434,36.3197687 23.835434,34.9739827 C23.835434,34.5430287 23.8464941,33.9873249 23.8686143,33.3068712 C23.9054813,32.2861908 23.9239148,31.654881 23.9239148,31.412942 C23.9239148,30.8458973 23.8778311,30.3771403 23.7856636,30.0066711 C23.6934961,29.6362019 23.5239079,29.2884145 23.276899,28.9633089 C23.0298901,28.6382032 22.6464733,28.356571 22.1266486,28.1184123 C21.6068239,27.8802535 20.9450612,27.7611741 20.1413606,27.7611741 C19.6473428,27.7611741 19.263926,27.8027574 18.9911102,27.8859239 C18.7920284,27.9464087 18.4454786,28.1165221 17.9514608,28.3962642 C17.4574429,28.6760062 16.9376182,29.0048922 16.3919866,29.3829219 L16.3919866,29.3829219 L16.325626,30.8458973 L17.0777128,31.0160107 L17.542237,29.8705804 C17.7118253,29.7571714 17.8592933,29.6815655 17.9846411,29.6437625 C18.2722037,29.560596 18.5745131,29.5190127 18.8915693,29.5190127 C19.6731497,29.5190127 20.2556483,29.7533911 20.6390651,30.2221481 C21.0151085,30.690905 21.1957568,31.375139 21.18101,32.2748499 C19.7948108,32.516789 18.5192126,32.8494552 17.3542153,33.2728486 C16.8675709,33.4467423 16.5081177,33.6263064 16.2758556,33.811541 C16.0435935,33.9967756 15.8260782,34.2859684 15.6233097,34.6791194 C15.4205412,35.0722704 15.3191569,35.57505 15.3191569,36.1874583 C15.3191569,37.0947298 15.545889,37.7903046 15.9993531,38.2741828 C16.4528172,38.7580609 17.0813995,39 17.8851002,39 Z M19.3892738,37.0266845 C18.9984836,37.0266845 18.6832707,36.894374 18.4436352,36.6297532 C18.2039997,36.3651323 18.084182,35.9908828 18.084182,35.5070047 C18.084182,35.0760507 18.1837229,34.7188125 18.3828047,34.4352902 C18.5818865,34.1517678 18.9413397,33.9136091 19.4611644,33.7208139 C19.9809891,33.5280187 20.554271,33.3635757 21.18101,33.227485 L21.18101,33.227485 L21.18101,35.9833222 C20.9893016,36.2857461 20.7257025,36.5352457 20.3902128,36.7318212 C20.0547231,36.9283967 19.7210768,37.0266845 19.3892738,37.0266845 Z M39.1315526,38.7051368 L39.1315526,37.8318879 C38.84399,37.8016455 38.6375348,37.7827441 38.512187,37.7751835 C38.1730106,37.7525017 37.9536519,37.6976873 37.854111,37.6107405 C37.7545701,37.5237936 37.6882095,37.3291083 37.6550292,37.0266845 C37.6218489,36.7242606 37.6015721,35.9341783 37.5941987,34.6564376 L37.5941987,34.6564376 L37.5831386,33.4883256 C37.5831386,33.3597954 37.5868253,33.2501668 37.5941987,33.1594396 C37.6089455,32.9250612 37.6163189,32.3769179 37.6163189,31.51501 C37.6163189,30.7513898 37.5610184,30.1900156 37.4504174,29.8308873 C37.3398163,29.471759 37.1481079,29.1277518 36.8752921,28.7988659 C36.6024763,28.46998 36.26883,28.2148099 35.8743531,28.0333556 C35.4798762,27.8519013 34.8881608,27.7611741 34.099207,27.7611741 C33.804271,27.7611741 33.5738522,27.7781855 33.4079507,27.8122081 C33.2420492,27.8462308 33.0374374,27.912386 32.7941152,28.0106738 L32.7941152,28.0106738 L30.7811769,29.6664443 L30.7811769,27.8405604 L30.4825542,27.7044696 C29.9516694,27.9539693 29.4760851,28.1354236 29.0558013,28.2488326 C28.6355175,28.3622415 27.7543962,28.5361352 26.4124374,28.7705137 L26.4124374,28.7705137 L26.4124374,29.6437625 C27.105537,29.6664443 27.5221341,29.7042473 27.6622287,29.7571714 C27.7507095,29.7874138 27.8152268,29.8346676 27.8557805,29.8989326 C27.8963342,29.9631977 27.9276711,30.2372693 27.9497913,30.7211474 C27.9940317,31.6813431 28.0161519,32.4978875 28.0161519,33.1707805 L28.0161519,33.1707805 L28.0159791,34.8288547 C28.0151726,35.2166896 28.0115435,35.5032244 28.0050918,35.688459 L28.0050918,35.688459 L27.9608514,36.6977985 C27.953478,37.0985101 27.9129243,37.3706916 27.8391903,37.5143429 C27.7875765,37.60507 27.7101558,37.6693351 27.6069282,37.7071381 C27.3857262,37.7903046 26.9875626,37.8318879 26.4124374,37.8318879 L26.4124374,37.8318879 L26.4124374,38.7051368 C27.1571508,38.6748944 28.2041736,38.6597732 29.5535058,38.6597732 C30.718503,38.6597732 31.702852,38.6748944 32.5065526,38.7051368 L32.5065526,38.7051368 L32.5065526,37.8318879 C31.9756678,37.7865243 31.665985,37.756282 31.5775042,37.7411608 C31.3194352,37.6882366 31.1461603,37.6315321 31.0576795,37.5710474 C30.9986923,37.5332444 30.9507652,37.4727596 30.9138982,37.3895931 C30.8622844,37.2761841 30.8327908,37.0418056 30.8254174,36.6864576 C30.7959237,35.8850345 30.7811769,35.2083611 30.7811769,34.6564376 L30.7811769,34.6564376 L30.7811769,32.7511674 C30.7738035,31.692684 30.7959237,31.0878363 30.8475376,30.9366244 C30.9360184,30.6795642 31.149847,30.424394 31.4890234,30.1711141 C31.8281998,29.9178341 32.255857,29.7911941 32.771995,29.7911941 C33.288133,29.7911941 33.7010434,29.9178341 34.0107262,30.1711141 C34.320409,30.424394 34.5250209,30.7589504 34.6245618,31.1747832 C34.7241027,31.590616 34.7738731,32.4600845 34.7738731,33.7831888 L34.7738731,33.7831888 L34.7738731,34.6791194 L34.7185726,36.539026 C34.6374652,37.6882366 34.5895381,38.3422282 34.5747913,38.5010007 L34.5747913,38.5010007 L34.7738731,38.7051368 C35.3121313,38.6522126 35.9462437,38.6257505 36.6762103,38.6257505 C37.3103227,38.6257505 38.1287702,38.6522126 39.1315526,38.7051368 L39.1315526,38.7051368 Z M53.2,38.7051368 L53.2,37.7978652 C52.905064,37.7751835 52.6801753,37.718479 52.5253339,37.6277518 C52.2525181,37.4689793 51.6810796,36.8792528 50.8110184,35.8585724 C49.2626043,34.0591505 48.1639677,32.7662886 47.5151085,31.9799867 L47.5151085,31.9799867 L48.455217,31.1407605 C48.528951,31.0727151 48.6321786,30.9744274 48.7648998,30.8458973 C48.897621,30.7173671 49.2884112,30.3884812 49.9372704,29.8592395 C50.4017946,29.4812097 50.7446578,29.2354903 50.9658598,29.1220814 C51.0838342,29.0615966 51.2054953,29.0237936 51.3308431,29.0086724 L51.3308431,29.0086724 L52.4921536,28.9292862 L52.4921536,28.0446965 C51.9376739,28.0507449 51.5106066,28.054374 51.2109516,28.0555837 L51.0101002,28.0560374 C50.3317473,28.063598 49.6607679,28.0598177 48.9971619,28.0446965 L48.9971619,28.0446965 L48.9971619,28.6797865 C48.7317195,28.9973316 48.4036032,29.3526796 48.012813,29.7458306 C47.6220228,30.1389815 47.349207,30.4187236 47.1943656,30.5850567 C46.7667084,31.0084501 46.2284502,31.5225706 45.579591,32.1274183 C45.2699082,32.4147209 44.9970924,32.6490994 44.7611436,32.8305537 L44.7611436,32.8305537 L44.7611436,28.7024683 C44.7611436,27.3264398 44.7758904,25.957972 44.805384,24.5970647 L44.805384,24.5970647 L44.8828047,22.1360907 L44.6394825,22 C43.7620478,22.2873026 43.0892251,22.4838781 42.6210142,22.5897265 C42.1528033,22.6955748 41.3988731,22.8127641 40.3592237,22.9412942 L40.3592237,22.9412942 L40.3592237,23.7805203 C40.8753617,23.8032021 41.1961046,23.8258839 41.3214524,23.8485657 C41.5057874,23.8788081 41.6421953,23.9203914 41.7306761,23.9733155 C41.7822899,24.0035579 41.8228436,24.0451412 41.8523372,24.0980654 C41.8965776,24.1887925 41.9297579,24.4874361 41.9518781,24.993996 C42.0108653,25.9844341 42.0403589,27.0882811 42.0403589,28.305537 L42.0403589,28.305537 L42.0403589,31.9799867 C42.0403589,32.9704247 42.0256121,34.1498777 41.9961185,35.5183456 C41.9813717,36.5239048 41.9445047,37.1400934 41.8855175,37.3669113 C41.8633973,37.4576384 41.8228436,37.5313542 41.7638564,37.5880587 C41.7048692,37.6447632 41.6182318,37.6863465 41.5039441,37.7128085 C41.3896564,37.7392706 41.0080829,37.7676229 40.3592237,37.7978652 L40.3592237,37.7978652 L40.3592237,38.7051368 C41.3398859,38.6522126 42.4016555,38.6257505 43.5445325,38.6257505 C44.6136756,38.6257505 45.5980245,38.6522126 46.4975793,38.7051368 L46.4975793,38.7051368 L46.4975793,37.7978652 C45.8929605,37.7676229 45.5464107,37.7449411 45.4579299,37.7298199 C45.2588481,37.6995775 45.1187535,37.6542139 45.0376461,37.5937292 C44.9786589,37.5559262 44.9381052,37.5067823 44.915985,37.4462975 C44.879118,37.3555704 44.8496244,37.0985101 44.8275042,36.6751167 C44.7832638,35.7376028 44.7611436,34.9928841 44.7611436,34.4409606 L44.7611436,34.4409606 L44.7611436,33.329553 C44.8717446,33.3371136 44.952852,33.3635757 45.0044658,33.4089393 C45.1593072,33.5299088 45.8247565,34.2765177 47.0008138,35.6487658 C48.1768712,37.021014 48.9566082,38.0398043 49.340025,38.7051368 C49.598094,38.682455 50.2395798,38.6711141 51.2644825,38.6711141 L51.4694893,38.6712877 C52.3356005,38.6727921 52.9124374,38.6840751 53.2,38.7051368 L53.2,38.7051368 Z" id="Bank" fill="#FFFFFF"></path>
            </g>
        </g>
    </g>
</svg>