<?xml version="1.0" encoding="UTF-8"?>
<svg width="17px" height="15px" viewBox="0 0 17 15" version="1.1" xmlns="http://www.w3.org/2000/svg" xmlns:xlink="http://www.w3.org/1999/xlink">
    <title></title>
    <g id="Page-1" stroke="none" stroke-width="1" fill="none" fill-rule="evenodd">
        <path d="M16.1796489,2.97659117 C16.4255704,2.97659117 16.6249604,2.77720123 16.6249604,2.53127973 L16.6249604,1.34378256 C16.6249604,1.09786106 16.4255704,0.898471121 16.1796489,0.898471121 L0.445311438,0.898471121 C0.199389936,0.898471121 0,1.09786106 0,1.34378256 L0,2.53127973 C0,2.77720123 0.199389936,2.97659117 0.445311438,2.97659117 L16.1796489,2.97659117 Z M16.1796489,8.91407701 C16.4255704,8.91407701 16.6249604,8.71468707 16.6249604,8.46876557 L16.6249604,7.2812684 C16.6249604,7.0353469 16.4255704,6.83595696 16.1796489,6.83595696 L0.445311438,6.83595696 C0.199389936,6.83595696 0,7.0353469 0,7.2812684 L0,8.46876557 C0,8.71468707 0.199389936,8.91407701 0.445311438,8.91407701 L16.1796489,8.91407701 Z M16.1796489,14.8515629 C16.4255704,14.8515629 16.6249604,14.6521729 16.6249604,14.4062514 L16.6249604,13.2187542 C16.6249604,12.9728327 16.4255704,12.7734428 16.1796489,12.7734428 L0.445311438,12.7734428 C0.199389936,12.7734428 0,12.9728327 0,13.2187542 L0,14.4062514 C0,14.6521729 0.199389936,14.8515629 0.445311438,14.8515629 L16.1796489,14.8515629 Z" id="" fill="#FFFFFF" fill-rule="nonzero"></path>
    </g>
</svg>