<?xml version="1.0" encoding="UTF-8"?>
<svg width="12px" height="17px" viewBox="0 0 12 17" version="1.1" xmlns="http://www.w3.org/2000/svg" xmlns:xlink="http://www.w3.org/1999/xlink">
    <title></title>
    <g id="Page-1" stroke="none" stroke-width="1" fill="none" fill-rule="evenodd">
        <path d="M10.5,16.3750396 C11.328125,16.3750396 12,15.7031646 12,14.8750396 L12,4.49692684 C12,4.10004574 11.8406372,3.71567684 11.5593872,3.43753964 L8.9375,0.81565243 C8.65625,0.53440243 8.2749939,0.375039637 7.87811279,0.375039637 L1.5,0.375039637 C0.671875,0.375039637 0,1.04691464 0,1.87503964 L0,14.8750396 C0,15.7031646 0.671875,16.3750396 1.5,16.3750396 L10.5,16.3750396 Z M10.5,14.8750396 L1.5,14.8750396 L1.5,1.87503964 L6.5,1.87503964 L6.5,5.12503964 C6.5,5.54065853 6.8343811,5.87503964 7.25,5.87503964 L10.5,5.87503964 L10.5,14.8750396 Z M10.3781128,4.37503964 L8,4.37503964 L8,1.99692684 L10.3781128,4.37503964 Z M8.625,9.37503964 C8.83123779,9.37503964 9,9.20627743 9,9.00003964 L9,8.12503964 C9,7.91880184 8.83123779,7.75003964 8.625,7.75003964 L3.375,7.75003964 C3.16876221,7.75003964 3,7.91880184 3,8.12503964 L3,9.00003964 C3,9.20627743 3.16876221,9.37503964 3.375,9.37503964 L8.625,9.37503964 Z M8.625,12.0000396 C8.83123779,12.0000396 9,11.8312774 9,11.6250396 L9,10.7500396 C9,10.5438018 8.83123779,10.3750396 8.625,10.3750396 L3.375,10.3750396 C3.16876221,10.3750396 3,10.5438018 3,10.7500396 L3,11.6250396 C3,11.8312774 3.16876221,12.0000396 3.375,12.0000396 L8.625,12.0000396 Z" id="" fill="#105FB2" fill-rule="nonzero"></path>
    </g>
</svg>