<?xml version="1.0" encoding="UTF-8"?>
<svg width="16px" height="14px" viewBox="0 0 16 14" version="1.1" xmlns="http://www.w3.org/2000/svg" xmlns:xlink="http://www.w3.org/1999/xlink">
    <title></title>
    <g id="Page-1" stroke="none" stroke-width="1" fill="none" fill-rule="evenodd">
        <path d="M14.6638997,13.0069813 C15.4027778,13.0069813 16,12.409759 16,11.6736479 L16,1.89587014 C16,1.15975903 15.4027778,0.562536806 14.6638997,0.562536806 L1.33610026,0.562536806 C0.597222222,0.562536806 0,1.15975903 0,1.89587014 L0,11.6736479 C0,12.409759 0.597222222,13.0069813 1.33610026,13.0069813 L14.6638997,13.0069813 Z M14.6638997,3.22920347 L1.33610026,3.22920347 L1.33610026,2.06253681 C1.33610026,1.97087556 1.41110569,1.89587014 1.50276693,1.89587014 L14.4972331,1.89587014 C14.5888943,1.89587014 14.6638997,1.97087556 14.6638997,2.06253681 L14.6638997,3.22920347 Z M14.4972331,11.6736479 L1.50276693,11.6736479 C1.41110569,11.6736479 1.33610026,11.5986425 1.33610026,11.5069813 L1.33610026,6.78475903 L14.6638997,6.78475903 L14.6638997,11.5069813 C14.6638997,11.5986425 14.5888943,11.6736479 14.4972331,11.6736479 Z M5,10.3403146 C5.18332248,10.3403146 5.33333333,10.1903037 5.33333333,10.0069813 L5.33333333,8.89587014 C5.33333333,8.71254766 5.18332248,8.56253681 5,8.56253681 L3,8.56253681 C2.81667752,8.56253681 2.66666667,8.71254766 2.66666667,8.89587014 L2.66666667,10.0069813 C2.66666667,10.1903037 2.81667752,10.3403146 3,10.3403146 L5,10.3403146 Z M10.3333333,10.3403146 C10.5166558,10.3403146 10.6666667,10.1903037 10.6666667,10.0069813 L10.6666667,8.89587014 C10.6666667,8.71254766 10.5166558,8.56253681 10.3333333,8.56253681 L6.55555556,8.56253681 C6.37223307,8.56253681 6.22222222,8.71254766 6.22222222,8.89587014 L6.22222222,10.0069813 C6.22222222,10.1903037 6.37223307,10.3403146 6.55555556,10.3403146 L10.3333333,10.3403146 Z" id="" fill="#105FB2" fill-rule="nonzero"></path>
    </g>
</svg>