<?xml version="1.0" encoding="UTF-8"?>
<svg width="12px" height="17px" viewBox="0 0 12 17" version="1.1" xmlns="http://www.w3.org/2000/svg" xmlns:xlink="http://www.w3.org/1999/xlink">
    <title></title>
    <g id="Page-1" stroke="none" stroke-width="1" fill="none" fill-rule="evenodd">
        <path d="M10.5,16.3750396 C11.328125,16.3750396 12,15.7031646 12,14.8750396 L12,3.87503964 C12,3.04691464 11.328125,2.37503964 10.5,2.37503964 L8,2.37503964 C8,1.27192074 7.1031189,0.375039637 6,0.375039637 C4.8968811,0.375039637 4,1.27192074 4,2.37503964 L1.5,2.37503964 C0.671875,2.37503964 0,3.04691464 0,3.87503964 L0,14.8750396 C0,15.7031646 0.671875,16.3750396 1.5,16.3750396 L10.5,16.3750396 Z M6,3.12503964 C5.5843811,3.12503964 5.25,2.79065853 5.25,2.37503964 C5.25,1.95942074 5.5843811,1.62503964 6,1.62503964 C6.4156189,1.62503964 6.75,1.95942074 6.75,2.37503964 C6.75,2.79065853 6.4156189,3.12503964 6,3.12503964 Z M10.3125,14.8750396 L1.6875,14.8750396 C1.5843811,14.8750396 1.5,14.7906585 1.5,14.6875396 L1.5,4.06253964 C1.5,3.95942074 1.5843811,3.87503964 1.6875,3.87503964 L3,3.87503964 L3,5.00003964 C3,5.20627743 3.16876221,5.37503964 3.375,5.37503964 L8.625,5.37503964 C8.83123779,5.37503964 9,5.20627743 9,5.00003964 L9,3.87503964 L10.3125,3.87503964 C10.4156189,3.87503964 10.5,3.95942074 10.5,4.06253964 L10.5,14.6875396 C10.5,14.7906585 10.4156189,14.8750396 10.3125,14.8750396 Z" id="" fill="#105FB2" fill-rule="nonzero"></path>
    </g>
</svg>